:SAMPLES-PER-SECOND 30
:FULLY-SPECIFIED
:DEGREES
263
root  8.34024 40.0646 -7.07143 -2.23654 49.5338 -4.25491
RightUpLeg  -12.1963 -11.9937 1.20964
RightLeg  13.8818 -6.42354 2.45931
RightFoot  -3.14983 0.10405 -1.75723
RightToes  0.00048216 0.542163 -0.142577
Spine  11.4657 -2.2305 1.68442
Spine1  7.80176 -5.04187 11.1298
HEad  5.92901 -10.3238 3.51736
LeftShoulder1  8.06954 -12.4744 -43.9622
LeftArm  -11.667 27.8543 -26.8719
LeftForeArm  32.4688 -40.3302 -7.42166
LeftHand  -0.25398 0.0180481 5.50724
RightShoulder  4.80826 8.31347 34.731
RightArm  -1.83538 -18.5324 25.0837
RightForeArm  3.14787 8.0831 8.48565
RightHand  -0.737747 -0.216319 -16.5046
LeftUpLeg  10.0594 18.1465 0.738896
LeftLeg  18.5526 5.40786 1.90702
LeftFoot  -9.51149 0.161693 -6.57974
LeftToes  1.06243e-005 4.65856e-005 -8.18505e-006
264
root  7.34561 39.9981 -7.35836 -3.26267 51.9113 -5.20644
RightUpLeg  -13.1379 -13.4186 2.48375
RightLeg  13.4348 -7.67607 2.2078
RightFoot  -2.12818 0.177607 -2.39109
RightToes  0.00048216 0.542163 -0.142577
Spine  12.7837 -2.41267 -0.708388
Spine1  6.79012 -5.90831 12.8129
HEad  3.91882 -5.6979 3.94378
LeftShoulder1  8.0096 -12.3539 -43.9669
LeftArm  -12.0053 27.325 -25.7735
LeftForeArm  33.1514 -41.8952 -7.8566
LeftHand  -0.25398 0.0180481 5.50724
RightShoulder  4.68835 8.1595 34.2469
RightArm  -1.49563 -22.0769 25.9814
RightForeArm  3.02312 9.44364 8.30548
RightHand  -0.660762 -0.384399 -15.2624
LeftUpLeg  13.0027 15.4947 2.04809
LeftLeg  12.5855 9.53845 -0.34448
LeftFoot  -11.6533 0.0559073 -6.00913
LeftToes  1.06243e-005 4.65856e-005 -8.18505e-006
265
root  6.25189 39.8783 -7.69032 -4.02067 54.8191 -5.51913
RightUpLeg  -14.7316 -16.8731 3.66779
RightLeg  14.184 -7.33266 1.33554
RightFoot  -1.86917 0.161196 -2.09816
RightToes  0.00048216 0.542163 -0.142577
Spine  14.8377 -2.55593 -3.4268
Spine1  5.68611 -6.63156 14.1495
HEad  1.74199 -2.12886 4.7556
LeftShoulder1  7.86285 -12.1467 -43.7188
LeftArm  -12.9964 26.3834 -25.0387
LeftForeArm  33.4552 -43.4207 -8.32717
LeftHand  -0.25398 0.0180481 5.50724
RightShoulder  4.6135 8.01965 34.0865
RightArm  -1.90436 -25.0306 27.9735
RightForeArm  2.99093 10.8402 7.91958
RightHand  -0.566077 -0.742953 -14.0524
LeftUpLeg  13.6131 9.63789 1.96573
LeftLeg  9.2158 13.6044 -2.60741
LeftFoot  -14.7443 -0.0493167 -4.66658
LeftToes  1.06243e-005 4.65856e-005 -8.18505e-006
266
root  5.13178 39.735 -8.00855 -3.59393 58.187 -4.58906
RightUpLeg  -17.209 -21.6394 4.65733
RightLeg  15.7832 -5.82297 -0.164623
RightFoot  -2.20678 0.0433003 -0.723077
RightToes  0.00048216 0.542163 -0.142577
Spine  16.7237 -2.60266 -6.21215
Spine1  4.6728 -7.10437 14.6841
HEad  -0.27227 0.0400537 5.73018
LeftShoulder1  7.67429 -11.9567 -43.1648
LeftArm  -14.3291 25.3799 -24.7315
LeftForeArm  32.9997 -44.9025 -8.86117
LeftHand  -0.25398 0.0180481 5.50724
RightShoulder  4.55268 7.883 34.0329
RightArm  -3.68656 -27.7694 31.341
RightForeArm  3.15121 12.1129 7.32436
RightHand  -0.505523 -1.02835 -13.3262
LeftUpLeg  12.2041 8.29921 1.81192
LeftLeg  9.14195 10.8903 -2.92513
LeftFoot  -17.3857 -0.0790731 -3.44356
LeftToes  1.06243e-005 4.65856e-005 -8.18505e-006
267
root  4.10365 39.6108 -8.26907 -1.70229 61.6166 -2.25968
RightUpLeg  -19.7944 -25.3509 4.75285
RightLeg  17.3625 -5.11224 -1.57797
RightFoot  -2.78831 -0.172619 2.06809
RightToes  0.00048216 0.542163 -0.142577
Spine  17.706 -2.47607 -8.36722
Spine1  4.04032 -7.08972 14.0355
HEad  -1.69033 0.585624 6.33531
LeftShoulder1  7.55105 -11.8424 -42.7645
LeftArm  -15.6181 24.5 -24.6336
LeftForeArm  31.6994 -46.333 -9.46541
LeftHand  -0.25398 0.0180481 5.50724
RightShoulder  4.50388 7.75977 34.0372
RightArm  -6.43072 -30.4378 35.5567
RightForeArm  3.61024 13.1404 6.70477
RightHand  -0.461029 -1.21151 -12.6441
LeftUpLeg  9.74469 8.57588 1.16398
LeftLeg  10.9548 7.00081 -2.60055
LeftFoot  -18.9284 -0.0802975 -2.91134
LeftToes  1.06243e-005 4.65856e-005 -8.18505e-006
268
root  3.26663 39.5617 -8.46366 0.793412 64.4574 0.857894
RightUpLeg  -21.1601 -26.4033 3.39315
RightLeg  18.5739 -6.13597 -2.52883
RightFoot  -3.54642 -0.380273 5.22437
RightToes  0.00048216 0.542163 -0.142577
Spine  17.7009 -2.0818 -9.14274
Spine1  4.11455 -6.34139 12.1306
HEad  -2.21467 -0.20905 6.0546
LeftShoulder1  7.51295 -11.7228 -42.8901
LeftArm  -16.8514 23.7706 -24.7951
LeftForeArm  30.0505 -47.2796 -9.94096
LeftHand  -0.25398 0.0180481 5.50724
RightShoulder  4.52313 7.71082 34.3787
RightArm  -8.94603 -32.3705 39.3547
RightForeArm  4.77893 13.5309 6.3158
RightHand  -0.361049 -1.79222 -11.2974
LeftUpLeg  7.80324 9.31795 0.328816
LeftLeg  12.6242 4.06217 -2.5928
LeftFoot  -19.2389 -0.0736623 -2.73615
LeftToes  1.06243e-005 4.65856e-005 -8.18505e-006
